<?xml version="1.0" ?><svg height="175px" version="1.1" viewBox="0 0 156 175" width="156px" xmlns="http://www.w3.org/2000/svg" xmlns:sketch="http://www.bohemiancoding.com/sketch/ns" xmlns:xlink="http://www.w3.org/1999/xlink"><title/><desc/><defs/><g fill="none" fill-rule="evenodd" id="Page-1" stroke="none" stroke-width="1"><g id="star-wars-copy" transform="translate(-648.000000, -1262.000000)"><g id="boba-fett" transform="translate(647.000000, 1262.000000)"><path d="M7,18.233 L7,61.895 C3.43,63.977 1,67.805 1,72.233 L1,90.233 C1,96.857 6.376,102.233 13,102.233 L19,102.233 L19,60.233 L13,60.233 L13,18.233 L7,18.233 Z" fill="#BEBEBE" id="Fill-1"/><path d="M31,6.233 C31,2.921 28.312,0.233 25,0.233 L13,0.233 C6.376,0.233 1,5.609 1,12.233 L7,18.233 L13,18.233 L31,6.233 Z" fill="#323232" id="Fill-3"/><path d="M145.618,60.233 C145.618,60.233 142.174,6.563 79,6.233 C15.826,6.563 12.382,60.233 12.382,60.233 L1,150.233 L61,174.233 L79,174.233 L97,174.233 L157,150.233 L145.618,60.233 Z" fill="#7BA78E" id="Fill-6"/><path d="M117.5194,38.9756 C120.0754,36.6176 121.1854,33.4796 120.9754,30.3956 C114.1354,36.0236 103.8574,36.0236 97.0234,30.3956 C96.8134,33.4796 97.9354,36.6176 100.4794,38.9756 C105.1774,43.3256 112.8214,43.3256 117.5194,38.9756" fill="#FFFFFF" id="Fill-8" opacity="0.25"/><path d="M149.4136,90.2432 L78.9976,90.6992 L8.5876,90.2432 L0.9976,150.2312 C8.3356,121.2332 20.6056,114.2312 30.9976,114.2312 C47.5696,114.2312 60.9976,138.8852 60.9976,174.2312 L78.9976,174.2312 L96.9976,174.2312 C96.9976,138.8852 110.4316,114.2312 126.9976,114.2312 C137.3956,114.2312 149.6656,121.2332 156.9976,150.2312 L149.4136,90.2432 Z" fill="#7BA78E" id="Fill-10" opacity="0.5"/><path d="M145.618,60.233 L79,60.233 L12.382,60.233 L8.578,90.323 C32.524,91.253 61,113.561 61,174.233 L79,174.233 L97,174.233 C97,113.561 125.476,91.253 149.422,90.323 L145.618,60.233 Z" fill="#921816" id="Fill-13"/><path d="M147.9706,78.839 L147.1366,72.233 L79.0006,72.233 L10.8646,72.233 L10.0306,78.839 L67.0006,90.233 L67.0006,174.233 L79.0006,174.233 L91.0006,174.233 L91.0006,90.233 L147.9706,78.839 Z" fill="#323232" id="Fill-15"/></g></g></g></svg>