<?xml version="1.0" ?><!DOCTYPE svg  PUBLIC '-//W3C//DTD SVG 1.1//EN'  'http://www.w3.org/Graphics/SVG/1.1/DTD/svg11.dtd'><svg enable-background="new 0 0 48 18" version="1.1" viewBox="0 0 48 18" xml:space="preserve" xmlns="http://www.w3.org/2000/svg" xmlns:xlink="http://www.w3.org/1999/xlink"><g id="Layer_1"><g><path d="M25.999,3c0-1.104-0.896-2-2-2c-1.104,0-2,0.895-2,2v0.5H26L25.999,3z M23.999,2.571c-0.316,0-0.572-0.256-0.572-0.571    c0-0.315,0.256-0.571,0.572-0.571c0.315,0,0.571,0.256,0.571,0.571C24.571,2.315,24.314,2.571,23.999,2.571z M25.142,3    c-0.158,0-0.286-0.128-0.286-0.286s0.128-0.286,0.286-0.286s0.286,0.128,0.286,0.286S25.3,3,25.142,3z"/><path d="M19.448,9.646L19.47,9.54L20.002,7h-0.777c0.307-0.34,0.545-0.75,0.672-1.224c0.429-1.6-0.521-3.245-2.121-3.674    c-1.6-0.429-3.245,0.521-3.674,2.121c-0.006,0.021-0.005,0.043-0.01,0.064l-2.738,0.692L3.745,2.958C3.903,2.672,4,2.349,4,2    c0-1.105-0.896-2-2-2S0,0.895,0,2c0,0.968,0.688,1.775,1.602,1.96L18.138,8.5L1.602,13.04C0.688,13.225,0,14.032,0,15    c0,1.105,0.896,2,2,2s2-0.895,2-2c0-0.349-0.097-0.672-0.255-0.958l7.608-2.021l2.738,0.692c0.005,0.021,0.005,0.043,0.01,0.064    c0.429,1.6,2.074,2.55,3.674,2.121c1.324-0.355,2.188-1.545,2.208-2.851l-0.513-2.295L19.448,9.646z M2,3C1.448,3,1,2.552,1,2    c0-0.552,0.448-1,1-1s1,0.448,1,1C3,2.552,2.552,3,2,3z M2,16c-0.552,0-1-0.448-1-1c0-0.552,0.448-1,1-1s1,0.448,1,1    C3,15.552,2.552,16,2,16z M16.482,6.932c-0.984-0.264-1.59-1.218-1.455-2.201l3.815,1.022C18.468,6.672,17.467,7.196,16.482,6.932    z M15.028,12.27c-0.135-0.984,0.47-1.938,1.455-2.201c0.984-0.264,1.985,0.26,2.36,1.179L15.028,12.27z M17.518,13.932    c-0.984,0.264-1.985-0.26-2.36-1.179l3.815-1.022C19.107,12.714,18.502,13.668,17.518,13.932z M18.972,5.27l-3.815-1.022    c0.375-0.919,1.376-1.443,2.36-1.179C18.502,3.332,19.107,4.286,18.972,5.27z"/><path d="M46.398,13.04L29.862,8.5l16.536-4.54C47.312,3.775,48,2.968,48,2c0-1.105-0.896-2-2-2s-2,0.895-2,2    c0,0.349,0.097,0.672,0.255,0.958l-7.608,2.021l-2.738-0.692c-0.005-0.021-0.005-0.043-0.01-0.064    c-0.429-1.6-2.074-2.55-3.674-2.121c-1.6,0.429-2.55,2.074-2.121,3.674C28.229,6.25,28.467,6.66,28.775,7h-0.8l0.515,2.543    l0.021,0.103l-0.022,0.102l-0.485,2.247h0.008c-0.003,1.327,0.87,2.543,2.212,2.903c1.6,0.429,3.245-0.521,3.674-2.121    c0.006-0.021,0.005-0.043,0.01-0.064l2.738-0.692l7.608,2.021C44.097,14.328,44,14.651,44,15c0,1.105,0.896,2,2,2s2-0.895,2-2    C48,14.032,47.312,13.225,46.398,13.04z M46,1c0.552,0,1,0.448,1,1c0,0.552-0.448,1-1,1s-1-0.448-1-1C45,1.448,45.448,1,46,1z     M32.972,4.73c0.135,0.984-0.47,1.938-1.455,2.201c-0.984,0.264-1.985-0.26-2.36-1.179L32.972,4.73z M30.482,3.068    c0.984-0.264,1.985,0.26,2.36,1.179L29.028,5.27C28.893,4.286,29.498,3.332,30.482,3.068z M30.482,13.932    c-0.984-0.264-1.59-1.218-1.455-2.201l3.815,1.022C32.468,13.672,31.467,14.196,30.482,13.932z M32.972,12.27l-3.815-1.022    c0.375-0.919,1.376-1.443,2.36-1.179C32.502,10.332,33.107,11.286,32.972,12.27z M46,16c-0.552,0-1-0.448-1-1c0-0.552,0.448-1,1-1    s1,0.448,1,1C47,15.552,46.552,16,46,16z"/><path d="M21.142,4l-1.183,5.642l1.013,5.384L22.199,12h3.602l1.223,3.016L28,9.642L26.856,4H21.142z M21.325,8l0.509-2.428    L22.163,8H21.325z M25.33,8h-2.662l-0.406-3h3.474L25.33,8z M25.835,8l0.325-2.401L26.647,8H25.835z"/><path d="M22.536,12.5l-1.393,3.435L21.908,18h4.183l0.766-2.065L25.464,12.5H22.536z M24.75,14.5h-1.5V13h1.5V14.5z"/></g></g></svg>