<?xml version="1.0" ?><!DOCTYPE svg  PUBLIC '-//W3C//DTD SVG 1.1//EN'  'http://www.w3.org/Graphics/SVG/1.1/DTD/svg11.dtd'><svg enable-background="new 0 0 33 27" version="1.1" viewBox="0 0 33 27" xml:space="preserve" xmlns="http://www.w3.org/2000/svg" xmlns:xlink="http://www.w3.org/1999/xlink"><g id="Layer_1"><g><circle cx="5" cy="7" r="1"/><rect height="4" width="1" x="10" y="4.5"/><path d="M26.5,16.354v-1.819l-1.833-1.222l-1.418,2.836C22.517,16.446,22,17.162,22,18c0,0.453,0.156,0.867,0.411,1.202L22.068,24    h3.007l0.327-4.576C25.77,19.062,26,18.558,26,18c0-0.175-0.03-0.341-0.072-0.503L26.5,16.354z M24,19c-0.551,0-1-0.449-1-1    s0.449-1,1-1s1,0.449,1,1S24.551,19,24,19z"/><polygon points="26.282,9 32,9 32,3 27,1.35 26,0 19,0 18,1.35 14,3 14,9 18.718,9   "/><path d="M8,9h1V4H5L2,6v1.5H0.25C0.112,7.5,0,7.612,0,7.75S0.112,8,0.25,8H2v1H0.5C0.224,9,0,9.224,0,9.5S0.224,10,0.5,10H7L8,9z     M5,8.5C4.172,8.5,3.5,7.828,3.5,7S4.172,5.5,5,5.5S6.5,6.172,6.5,7S5.828,8.5,5,8.5z"/><path d="M31.82,24l-1.079-5.034C30.901,18.678,31,18.352,31,18c0-0.504-0.193-0.958-0.5-1.31v-2.44L31.714,10H16    c-1.105,0-2,0.895-2,2c0,0.277,0.057,0.541,0.159,0.781l-1.167,3.5C12.401,16.629,12,17.265,12,18    c0,0.261,0.053,0.508,0.144,0.736L10.264,24h3.186l0.696-1.95l2.572,1.24l1.301-2.704l-2.582-1.216C15.781,19.013,16,18.536,16,18    c0-0.277-0.057-0.541-0.159-0.781l0.951-2.853L19.75,12h4.75l3,2v2.531v0.159C27.193,17.042,27,17.496,27,18    c0,0.671,0.333,1.262,0.841,1.624L28.758,24H31.82z M14,19c-0.551,0-1-0.449-1-1s0.449-1,1-1s1,0.449,1,1S14.551,19,14,19z M16,13    c-0.551,0-1-0.449-1-1s0.449-1,1-1s1,0.449,1,1S16.551,13,16,13z M29,11c0.551,0,1,0.449,1,1s-0.449,1-1,1s-1-0.449-1-1    S28.449,11,29,11z M28,18c0-0.551,0.449-1,1-1s1,0.449,1,1s-0.449,1-1,1S28,18.551,28,18z"/><rect height="4" width="1" x="12" y="4.5"/><polygon points="19.731,20.486 19.01,20.832 17.384,24.211 17.564,24.991 18.916,25.642 21.083,21.136   "/><polygon points="32.375,25 28.625,25 28,25.5 28,27 33,27 33,25.5   "/><polygon points="21.625,25 21,25.5 21,27 26,27 26,25.5 25.375,25   "/><polygon points="9.625,25 9,25.5 9,27 14,27 14,25.5 13.375,25   "/><path d="M9.546,19.915l0.955,0.449l0.588-1.647C11.03,18.481,11,18.241,11,18c0-0.917,0.432-1.785,1.148-2.35l1.084-3.253    l-4.207,3.606C9.017,16.003,9.009,16,9,16c-1.105,0-2,0.895-2,2s0.895,2,2,2C9.191,20,9.371,19.965,9.546,19.915z M8,18    c0-0.551,0.449-1,1-1s1,0.449,1,1s-0.449,1-1,1S8,18.551,8,18z"/></g></g></svg>