<?xml version="1.0" ?><svg baseProfile="tiny" height="512px" id="Layer_1" version="1.2" viewBox="0 0 512 512" width="512px" xml:space="preserve" xmlns="http://www.w3.org/2000/svg" xmlns:xlink="http://www.w3.org/1999/xlink"><polygon points="470.874,201.246 74.4,201.246 74.4,219.268 236.584,248.09 236.584,507.617 308.678,507.617 308.678,248.09   470.874,219.268 "/><path d="M56.372,256.808v-89.951h-0.311l0.311-127.801h36.043c9.961,0,18.022-8.061,18.022-18.021  c0-9.956-8.061-18.022-18.022-18.022H20.329c-9.961,0-18.022,8.066-18.022,18.022c0,9.961,8.061,18.021,18.022,18.021H38.35v127.801  c-10.454,3.737-18.021,13.622-18.021,25.373v72.087c0,14.942,12.108,27.027,27.033,27.027c1.402,0,2.775-0.188,4.153-0.411  L38.35,435.53L194,507.617h24.569C218.568,341.467,128.876,267.385,56.372,256.808"/><path d="M470.088,165.208C462.098,62.422,385.622,3.012,272.634,3.012c-112.953,0-189.476,59.41-197.43,162.196H470.088z   M398.716,75.592c0.634,9.263-2.722,18.69-10.396,25.771c-14.103,13.047-37.052,13.047-51.179,0  c-7.638-7.081-11.006-16.508-10.372-25.771C347.279,92.482,378.16,92.482,398.716,75.592"/><path d="M489.036,256.79c-72.51,10.501-162.337,84.56-162.337,250.827h24.593l155.613-72.087L489.036,256.79z"/></svg>