<?xml version="1.0" ?><svg baseProfile="tiny" height="512px" id="Layer_1" version="1.2" viewBox="0 0 512 512" width="512px" xml:space="preserve" xmlns="http://www.w3.org/2000/svg" xmlns:xlink="http://www.w3.org/1999/xlink"><path d="M214.793,166.129c-4.073-42.109-13.506-103.283-30.265-144.784c-19.814,9.375-37.206,22.448-52.432,38.294  C173.246,94.469,200.877,139.667,214.793,166.129"/><path d="M382.259,59.639c-15.238-15.846-32.642-28.919-52.443-38.282c-16.76,41.489-26.192,102.664-30.266,144.772  C313.465,139.667,341.086,94.457,382.259,59.639"/><path d="M427.048,123.879c-62.052,30.616-93.979,68.149-94.494,68.793c-0.901,1.065-2.177,1.638-3.476,1.638  c-1.007,0-2.014-0.339-2.868-1.03c-1.907-1.58-2.188-4.4-0.608-6.308c0.539-0.679,33.414-39.429,97.257-70.994  c-9.948-18.094-21.371-34.818-34.421-49.6c-59.828,50.431-90.69,123.999-91.158,125.123c-0.164,0.421-0.526,0.644-0.784,0.983  c-0.223,0.257-0.34,0.515-0.597,0.726c-0.808,0.655-1.732,1.1-2.773,1.1h-0.27c-0.07,0-0.105-0.082-0.176-0.093  c-0.421-0.047-0.843-0.082-1.24-0.246c-0.34-0.128-0.434-0.503-0.726-0.714c-0.504-0.339-0.878-0.667-1.194-1.182  c-0.315-0.491-0.433-0.948-0.538-1.521c-0.07-0.363-0.374-0.62-0.351-1.006c0.374-6.214,6.869-108.188,32.969-171.796  c-19.253-7.818-40.553-12.359-64.428-12.359c-23.875,0-45.176,4.541-64.428,12.359c26.099,63.62,32.594,165.582,32.969,171.796  c0.023,0.386-0.281,0.644-0.351,1.006c-0.105,0.574-0.223,1.03-0.539,1.521c-0.316,0.515-0.69,0.843-1.194,1.182  c-0.292,0.211-0.386,0.585-0.726,0.714c-0.398,0.164-0.819,0.199-1.24,0.246c-0.07,0.012-0.105,0.093-0.188,0.093h-0.257  c-1.042,0-1.966-0.445-2.774-1.1c-0.257-0.21-0.375-0.468-0.597-0.726c-0.258-0.339-0.621-0.562-0.784-0.983  c-0.468-1.124-31.331-74.692-91.159-125.123c-13.049,14.782-24.472,31.506-34.42,49.6c63.842,31.564,96.718,70.315,97.256,70.994  c1.58,1.908,1.299,4.728-0.608,6.308c-0.854,0.69-1.861,1.03-2.867,1.03c-1.299,0-2.575-0.573-3.476-1.638  c-0.515-0.644-32.431-38.177-94.494-68.793C23.558,247.223,23.476,422.623,23.476,422.623c0,17.767,14.945,32.185,33.39,32.185  h74.469l44.649,37.697l32.466-16.244l48.722,32.478l48.722-32.478l32.465,16.244l44.649-37.697h74.469  c18.445,0,33.391-14.418,33.391-32.185C490.867,422.623,490.785,247.223,427.048,123.879 M295.453,230.405h31.296  c1.439,2.586,2.329,5.524,2.329,8.684c0,9.924-8.053,17.977-17.977,17.977c-9.925,0-17.977-8.052-17.977-17.977  C293.125,235.929,294.014,232.991,295.453,230.405 M257.172,275.042c25.524,0,46.229,12.066,46.229,26.965  c0,1.721-0.34,3.383-0.866,4.997c-2.188-0.667-4.447-1.135-6.847-1.135c-12.184,0-22.061,9.456-22.939,21.429  c-4.892,1.019-10.076,1.674-15.576,1.674c-5.501,0-10.686-0.655-15.578-1.674c-0.877-11.973-10.755-21.429-22.938-21.429  c-2.399,0-4.67,0.468-6.847,1.135c-0.527-1.614-0.866-3.276-0.866-4.997C210.942,287.108,231.646,275.042,257.172,275.042   M187.594,230.405h31.295c1.439,2.586,2.329,5.524,2.329,8.684c0,9.924-8.052,17.977-17.977,17.977  c-9.925,0-17.977-8.052-17.977-17.977C185.265,235.929,186.154,232.991,187.594,230.405 M122.347,373.913  c0,4.975-4.014,8.988-8.988,8.988c-4.974,0-8.988-4.014-8.988-8.988c0-37.205,36.644-68.431,90.305-82.229  c-1.042,3.3-1.709,6.729-1.709,10.322c0,2.832,0.644,5.699,1.416,8.603C151.945,322.886,122.347,346.937,122.347,373.913   M328.809,405.771c-0.667,2.656-3.055,4.412-5.642,4.4h-112.33h-5.22c-11.329-0.047-20.469-9.89-20.422-21.324  c0.047-11.445,9.269-20.668,20.598-20.621c1.72,0.012,3.464,0.257,5.044,0.655l112.33,29.353l1.476,0.386  C327.755,399.427,329.616,402.634,328.809,405.771 M400.984,382.901c-4.975,0-8.988-4.014-8.988-8.988  c0-26.977-29.599-51.027-72.035-63.304c0.772-2.903,1.416-5.771,1.416-8.603c0-3.593-0.667-7.022-1.709-10.322  c53.661,13.798,90.305,45.023,90.305,82.229C409.973,378.888,405.958,382.901,400.984,382.901"/></svg>