<?xml version="1.0" ?><svg height="229px" version="1.1" viewBox="0 0 181 229" width="181px" xmlns="http://www.w3.org/2000/svg" xmlns:sketch="http://www.bohemiancoding.com/sketch/ns" xmlns:xlink="http://www.w3.org/1999/xlink"><title/><desc/><defs/><g fill="none" fill-rule="evenodd" id="Page-1" stroke="none" stroke-width="1"><g id="star-wars-copy" transform="translate(-1368.000000, -503.000000)"><g id="chewbacca" transform="translate(1368.000000, 503.000000)"><path d="M129.8206,165.7888 C129.4366,167.2948 128.0866,168.2908 126.6106,168.2848 L62.8066,168.2848 L59.8366,168.2848 C53.3986,168.2608 48.2086,162.6748 48.2326,156.1768 C48.2626,149.6788 53.5006,144.4348 59.9386,144.4588 C60.9106,144.4648 61.9066,144.6088 62.8066,144.8368 L126.6106,161.5048 L127.4506,161.7268 C129.2146,162.1888 130.2766,164.0068 129.8206,165.7888" fill="#323232" id="Fill-161"/><path d="M90.2338,0.4606 C50.4718,0.4606 16.1278,44.3806 13.3498,85.9126 L0.2338,192.4606 L180.2338,192.4606 L167.1178,85.9126 C164.3398,44.3806 129.9958,0.4606 90.2338,0.4606" fill="#503C1D" id="Fill-162"/><path d="M126.2338,76.4608 L126.2338,76.4608 L144.2338,50.6848 L108.2338,63.5728 L126.2338,37.7968 L102.2338,44.2408 L108.2338,18.4588 L90.2338,44.2408 L72.2338,18.4588 L78.2338,44.2408 L54.2338,37.7968 L72.2338,63.5728 L36.2338,50.6848 L54.2338,76.4608 C38.1358,73.0048 22.7518,85.1608 21.0298,102.6988 L12.2338,192.4588 L90.2338,192.4588 L168.2338,192.4588 L159.4378,102.6988 C157.7158,85.1608 142.3318,73.0048 126.2338,76.4608" fill="#A57D52" id="Fill-163"/><path d="M84.2338,132.4606 C61.5478,132.4606 51.2338,156.4606 51.2338,156.4606 L129.2338,156.4606 C129.2338,156.4606 120.6058,132.4606 96.2338,132.4606 L90.2338,138.4606 L84.2338,132.4606 Z" fill="#8C6239" id="Fill-164"/><path d="M90.2338,126.4606 L90.2338,156.4606" id="Stroke-165" stroke="#A57D52" stroke-linecap="round" stroke-width="6.708"/><path d="M90.2338,119.0764 C99.4078,119.0764 106.8478,123.4144 106.8478,128.7664 C106.8478,129.3844 106.7278,129.9844 106.5358,130.5664 C105.7558,130.3204 104.9398,130.1524 104.0818,130.1524 C99.6958,130.1524 96.1498,133.5544 95.8318,137.8564 C94.0738,138.2284 92.2078,138.4624 90.2338,138.4624 C88.2598,138.4624 86.3938,138.2284 84.6358,137.8564 C84.3178,133.5544 80.7718,130.1524 76.3858,130.1524 C75.5278,130.1524 74.7118,130.3204 73.9258,130.5664 C73.7398,129.9844 73.6198,129.3844 73.6198,128.7664 C73.6198,123.4144 81.0598,119.0764 90.2338,119.0764" fill="#323232" id="Fill-166"/><path d="M42.2338,186.4606 L54.2338,216.4606 L66.2338,198.4606 L78.2338,228.4606 L90.2338,198.4606 L102.2338,228.4606 L114.2338,198.4606 L126.2338,216.4606 L138.2338,186.4606 L42.2338,186.4606 Z" fill="#A57D52" id="Fill-167"/><path d="M102.2338,102.5926 C102.2338,109.1446 107.5498,114.4606 114.1018,114.4606 L138.2338,114.4606 C138.2338,114.4606 126.6298,90.7246 114.1018,90.7246 C107.7538,90.7246 102.2338,96.0406 102.2338,102.5926" fill="#503C1D" id="Fill-168"/><path d="M78.2338,102.5926 C78.2338,109.1446 72.9178,114.4606 66.3658,114.4606 L42.2338,114.4606 C42.2338,114.4606 53.8378,90.7246 66.3658,90.7246 C72.7138,90.7246 78.2338,96.0406 78.2338,102.5926" fill="#503C1D" id="Fill-169"/><path d="M114.2338,97.9612 C111.7438,97.9612 109.7338,99.9712 109.7338,102.4612 C109.7338,104.9512 111.7438,106.9612 114.2338,106.9612 C116.7238,106.9612 118.7338,104.9512 118.7338,102.4612 C118.7338,99.9712 116.7238,97.9612 114.2338,97.9612" fill="#FFFFFF" id="Fill-170"/><path d="M66.2338,97.9612 C63.7438,97.9612 61.7338,99.9712 61.7338,102.4612 C61.7338,104.9512 63.7438,106.9612 66.2338,106.9612 C68.7238,106.9612 70.7338,104.9512 70.7338,102.4612 C70.7338,99.9712 68.7238,97.9612 66.2338,97.9612" fill="#FFFFFF" id="Fill-171"/><path d="M123.2338,168.4612 L57.2338,168.4612 C52.2838,168.4612 48.2338,164.4112 48.2338,159.4612 C48.2338,154.5112 52.2838,150.4612 57.2338,150.4612 L123.2338,150.4612 C128.1838,150.4612 132.2338,154.5112 132.2338,159.4612 L132.2338,159.4612 C132.2338,164.4112 128.1838,168.4612 123.2338,168.4612" fill="#323232" id="Fill-172"/><path d="M66.2338,168.4606 L72.2338,156.4606 L78.2338,168.4606 L66.2338,168.4606 Z" fill="#FFFFFF" id="Fill-173"/><path d="M102.2338,168.4606 L108.2338,156.4606 L114.2338,168.4606 L102.2338,168.4606 Z" fill="#FFFFFF" id="Fill-174"/><path d="M126.2338,150.4606 L120.2338,162.4606 L114.2338,150.4606 L126.2338,150.4606 Z" fill="#FFFFFF" id="Fill-175"/><path d="M66.2338,150.4606 L60.2338,162.4606 L54.2338,150.4606 L66.2338,150.4606 Z" fill="#FFFFFF" id="Fill-176"/></g></g></g></svg>