<svg xmlns="http://www.w3.org/2000/svg" xmlns:xlink="http://www.w3.org/1999/xlink" version="1.1" x="0px" y="0px" viewBox="0 0 100 125" enable-background="new 0 0 100 100" xml:space="preserve"><g><rect x="47.644" y="16.14" width="6" height="33.667"/><path d="M92.448,76.617l-10.04-23.372c0.416-2.735,2.005-16.331-5.521-26.512c-4.823-6.526-12.395-10.407-22.545-11.551   c0.177,0.076,0.301,0.252,0.301,0.457v34.167h0.785c0.276,0,0.5,0.224,0.5,0.5v0.625c1.904-2.616,5.36-4.376,9.313-4.376   c5.996,0,10.875,4.037,10.875,9s-4.879,9-10.875,9c-5.631,0-10.275-3.561-10.82-8.104h-2.998c-0.176-0.023-0.352-0.053-0.534-0.053   s-0.357,0.029-0.534,0.053h-3.599c-0.545,4.544-5.189,8.104-10.82,8.104c-5.996,0-10.875-4.037-10.875-9s4.879-9,10.875-9   c3.763,0,7.084,1.591,9.037,4.001v-0.25c0-0.276,0.224-0.5,0.5-0.5h1.171V15.64c0-0.271,0.217-0.489,0.485-0.497h-0.038   c-10.271,1.092-17.954,4.991-22.832,11.591c-7.913,10.706-5.748,25.188-5.467,26.846L8.685,77.108   c-0.063,0.146-0.053,0.312,0.026,0.448c0.08,0.138,0.22,0.229,0.377,0.246l16.417,1.834c0.019,0.002,0.037,0.003,0.056,0.003   c0.122,0,0.241-0.045,0.333-0.127c0.106-0.096,0.167-0.23,0.167-0.373v-2.991h6.554l0.355,0.902   c-1.58,0.558-2.722,2.05-2.722,3.817c0,2.24,1.822,4.063,4.063,4.063c2.069,0,3.763-1.561,4.012-3.563h25.134   c0.25,2.003,1.942,3.563,4.012,3.563c2.24,0,4.063-1.823,4.063-4.063c0-2.043-1.521-3.722-3.487-4.004l0.476-1.207h6.554v2.991   c0,0.143,0.061,0.277,0.167,0.373c0.105,0.094,0.248,0.139,0.389,0.124l16.417-1.834c0.157-0.018,0.297-0.108,0.377-0.246   C92.501,76.929,92.511,76.763,92.448,76.617z M34.174,83.932c-1.688,0-3.063-1.374-3.063-3.063c0-1.688,1.374-3.063,3.063-3.063   s3.063,1.374,3.063,3.063C37.236,82.558,35.862,83.932,34.174,83.932z M45.366,77.822l-6.549-0.02l6.549-8.801V77.822z    M50.117,77.836l-4.178-0.012v-9.593l2.311-3.105c-0.393-0.707-0.606-1.578-0.606-2.494c0-2.066,1.058-3.711,2.474-4.002V77.836z    M55.183,68.124v9.728l-4.492-0.014V58.587c1.572,0.094,2.787,1.829,2.787,4.045c0,0.868-0.192,1.699-0.548,2.388l2.31,3.104   H55.183z M55.757,77.853v-9.033l6.736,9.054L55.757,77.853z M70.403,80.868c0,1.689-1.374,3.063-3.063,3.063   s-3.063-1.374-3.063-3.063c0-1.688,1.374-3.063,3.063-3.063S70.403,79.18,70.403,80.868z"/><path d="M54.003,15.14c0.115,0.012,0.226,0.029,0.34,0.043c-0.061-0.027-0.128-0.043-0.199-0.043H54.003z"/><rect x="46.083" y="50.807" width="8.956" height="1.822"/><rect x="46.083" y="53.629" width="8.956" height="1.822"/></g><text x="0" y="115" fill="#000000" font-size="5px" font-weight="bold" font-family="'Helvetica Neue', Helvetica, Arial-Unicode, Arial, Sans-serif">Created by chiara galli</text><text x="0" y="120" fill="#000000" font-size="5px" font-weight="bold" font-family="'Helvetica Neue', Helvetica, Arial-Unicode, Arial, Sans-serif">from the Noun Project</text></svg>