<svg xmlns="http://www.w3.org/2000/svg" xmlns:xlink="http://www.w3.org/1999/xlink" version="1.1" x="0px" y="0px" viewBox="0 0 100 125" enable-background="new 0 0 100 100" xml:space="preserve"><path d="M63.021,11.667h9.201c8.422,4.894,15.084,12.478,18.807,21.583H63.021V11.667z M13.686,35.477H8.134  C6.555,40.028,5.686,44.912,5.686,50c0,1.732,0.11,3.438,0.303,5.117h7.696V35.477z M44.854,58.563H6.521  c0.383,1.955,0.899,3.861,1.53,5.717h36.803V58.563z M50,5.686c-6.699,0-13.046,1.495-18.739,4.156H68.74  C63.047,7.181,56.699,5.686,50,5.686z M45.894,64.279h46.055c0.633-1.855,1.148-3.762,1.531-5.717H45.894V64.279z M50,94.314  c11.083,0,21.21-4.08,28.982-10.807H21.02C28.791,90.234,38.916,94.314,50,94.314z M69.73,81.898h11.014  c4.623-4.457,8.279-9.906,10.625-16.01H69.73V81.898z M79.963,55.117h14.049c0.191-1.68,0.303-3.385,0.303-5.117  c0-5.088-0.867-9.972-2.449-14.523H79.963V55.117z M45.894,81.898h23.213v-16.01H45.894V81.898z M36.631,65.889H8.632  c2.346,6.104,6.001,11.553,10.625,16.01h17.374V65.889z M56.988,55.117h15.025V35.477H56.988V55.117z M78.752,35.477h-6.1v19.641  h6.1V35.477z M30.344,20.942v-9.275h-2.565C19.354,16.561,12.693,24.145,8.972,33.25h13.129  C22.173,27.721,25.545,22.989,30.344,20.942z M44.751,23.372V11.667H30.968v9.043c1.465-0.541,3.042-0.852,4.695-0.852  C39.164,19.858,42.345,21.195,44.751,23.372z M45.063,43.2v11.917h10.259V35.477h-6.261C48.604,38.492,47.163,41.18,45.063,43.2z   M22.264,35.477h-7.236v19.641h29.412v-11.35c-2.367,2.011-5.427,3.23-8.776,3.23C28.866,46.998,23.253,41.997,22.264,35.477z   M61.869,11.667H46.417v13.509c1.724,2.244,2.767,5.035,2.806,8.075h12.646V11.667z M37.672,81.898h7.182v-16.01h-7.182V81.898z   M35.663,25.768c-4.133,0-7.483,3.35-7.483,7.482c0,4.132,3.35,7.482,7.483,7.482c4.132,0,7.482-3.35,7.482-7.482  C43.145,29.118,39.795,25.768,35.663,25.768z"/><text x="0" y="115" fill="#000000" font-size="5px" font-weight="bold" font-family="'Helvetica Neue', Helvetica, Arial-Unicode, Arial, Sans-serif">Created by Lucid Formation</text><text x="0" y="120" fill="#000000" font-size="5px" font-weight="bold" font-family="'Helvetica Neue', Helvetica, Arial-Unicode, Arial, Sans-serif">from the Noun Project</text></svg>