<?xml version="1.0" encoding="UTF-8" standalone="no"?>
<!-- Created with Inkscape (http://www.inkscape.org/) -->

<svg
   xmlns:dc="http://purl.org/dc/elements/1.1/"
   xmlns:cc="http://creativecommons.org/ns#"
   xmlns:rdf="http://www.w3.org/1999/02/22-rdf-syntax-ns#"
   xmlns:svg="http://www.w3.org/2000/svg"
   xmlns="http://www.w3.org/2000/svg"
   xmlns:sodipodi="http://sodipodi.sourceforge.net/DTD/sodipodi-0.dtd"
   xmlns:inkscape="http://www.inkscape.org/namespaces/inkscape"
   width="161.11014mm"
   height="82.089867mm"
   viewBox="0 0 570.86269 290.8696"
   id="svg2"
   version="1.1"
   inkscape:version="0.91 r13725"
   sodipodi:docname="SW-jokes.svg"
   inkscape:export-filename="/Volumes/SD Card/Desarrollos/SW-Jokes/extras/SW-jokes.png"
   inkscape:export-xdpi="300"
   inkscape:export-ydpi="300">
  <defs
     id="defs4" />
  <sodipodi:namedview
     id="base"
     pagecolor="#ffffff"
     bordercolor="#666666"
     borderopacity="1.0"
     inkscape:pageopacity="0.0"
     inkscape:pageshadow="2"
     inkscape:zoom="1.3456412"
     inkscape:cx="307.22422"
     inkscape:cy="127.13539"
     inkscape:document-units="px"
     inkscape:current-layer="layer1"
     showgrid="false"
     inkscape:window-width="1440"
     inkscape:window-height="851"
     inkscape:window-x="0"
     inkscape:window-y="1"
     inkscape:window-maximized="1"
     fit-margin-top="10"
     fit-margin-left="10"
     fit-margin-right="10"
     fit-margin-bottom="10" />
  <metadata
     id="metadata7">
    <rdf:RDF>
      <cc:Work
         rdf:about="">
        <dc:format>image/svg+xml</dc:format>
        <dc:type
           rdf:resource="http://purl.org/dc/dcmitype/StillImage" />
        <dc:title></dc:title>
      </cc:Work>
    </rdf:RDF>
  </metadata>
  <g
     inkscape:label="Capa 1"
     inkscape:groupmode="layer"
     id="layer1"
     transform="translate(-68.441744,-17.250202)">
    <g
       id="g4172"
       transform="matrix(5.5483814,0,0,5.5535965,-638.13087,-238.92846)">
      <path
         sodipodi:nodetypes="cccscccccssc"
         d="m 169.94466,62.157065 -8.86719,0 c -3.34635,-0.104167 -3.84115,0.820313 -1.48438,2.773438 4.21875,3.697917 6.28907,7.291667 6.21094,10.78125 -0.0781,3.489583 -2.14844,5.572917 -6.21094,6.25 l -24.60937,0 0,-8.398438 15.54687,0 c 3.6849,0.104167 4.15365,-0.924479 1.40625,-3.085937 -4.53125,-4.166667 -6.45833,-7.994792 -5.78125,-11.484375 0.67709,-3.489583 2.8125,-5.234375 6.40625,-5.234375 l 17.38282,0"
         style="font-style:normal;font-variant:normal;font-weight:normal;font-stretch:normal;font-size:40px;line-height:125%;font-family:'Star Jedi Logo MonoLine';-inkscape-font-specification:'Star Jedi Logo MonoLine, Normal';text-align:start;letter-spacing:7px;word-spacing:0px;writing-mode:lr-tb;text-anchor:start;fill:none;fill-opacity:1;stroke:#ffd54e;stroke-width:2.5;stroke-linecap:butt;stroke-linejoin:miter;stroke-miterlimit:4;stroke-dasharray:none;stroke-opacity:1"
         id="path4150"
         inkscape:connector-curvature="0" />
      <path
         sodipodi:nodetypes="ccccccccccccccc"
         d="m 169.944,53.758628 12.93018,0 3.86693,12.187647 3.35937,-12.1875 8.4375,0 3.92579,12.1875 2.61718,-12.1875 9.08203,0 -6.97265,28.203125 -9.17969,0 -3.57422,-11.953125 -2.96875,11.953125 -9.17969,0 -6.48437,-19.804272 -5.85961,0"
         style="font-style:normal;font-variant:normal;font-weight:normal;font-stretch:normal;font-size:40px;line-height:125%;font-family:'Star Jedi Logo MonoLine';-inkscape-font-specification:'Star Jedi Logo MonoLine, Normal';text-align:start;letter-spacing:7px;word-spacing:0px;writing-mode:lr-tb;text-anchor:start;fill:none;fill-opacity:1;stroke:#ffd54e;stroke-width:2.5;stroke-linecap:butt;stroke-linejoin:miter;stroke-miterlimit:4;stroke-dasharray:none;stroke-opacity:1"
         id="path4152"
         inkscape:connector-curvature="0" />
    </g>
    <g
       id="g4176"
       transform="matrix(1.626429,-0.41429547,0.41390642,1.6279577,-83.390507,-189.31384)"
       style="stroke:#970001;stroke-opacity:1">
      <path
         sodipodi:nodetypes="cccccccccccccccccccccccccccscscccccccccccccccccccccscccc"
         d="m 207.30285,323.34507 c 0.45333,2.02667 1.40112,3.04997 2.60112,3.79663 -0.42666,-0.69333 -0.88112,-1.20996 -1.12112,-2.27663 l 3.92,-0.28 -0.24,-5.56 -1.4,0.16 0.16,3.92 z m -7.8,0.56 0.04,1.56 1.95326,-0.16 c -0.08,-0.56 -0.12,-1.09333 -0.12,-1.6 z m 14.52,-19.12 0.04,1.64 2.8527,-0.32 0.04,-1.64 z m 8.52,0.92 4.72,-0.4 -0.36,-5.56 -1.36,0.16 0.2,3.92 -4.68,0.36 0.16,13 c 0.0533,4.72 -0.53333,8.76 -1.76,12.12 -1.38667,3.73333 -3.36,5.89333 -5.92,6.48 -0.64,0.16 -1.26667,0.24 -1.88,0.24 -1.84,0 -3.39888,-0.50554 -4.91888,-1.75888 1.81334,2.24 3.86555,3.23888 6.39888,3.23888 0.64,0 1.26667,-0.08 1.88,-0.24 2.56,-0.58667 4.53333,-2.74667 5.92,-6.48 1.22667,-3.33333 1.81333,-7.36 1.76,-12.08 z m -2.24,-2.24 4.72,-0.4 -0.32,-5.56 -13.08,1.6 0.24,5.08 5.12,-0.44 -0.2,13.08 c -0.0533,2.77333 -0.56,5.21333 -1.52,7.32 -1.04,2.32 -2.33333,3.41333 -3.88,3.28 -2.53333,-0.18667 -4.14667,-1.78667 -4.84,-4.8 l 3.92,-0.28 -0.2,-5.56 -13.12,1.4 0.16,5.04 4.08,-0.24 c 0,2 0.37333,3.90667 1.12,5.72 0.8,1.97333 1.93333,3.56 3.4,4.76 1.49333,1.2 3.16,1.8 5,1.8 0.64,0 1.26667,-0.0667 1.88,-0.2 2.56,-0.61333 4.53333,-2.78667 5.92,-6.52 1.22667,-3.33333 1.81333,-7.36 1.76,-12.08 z"
         style="font-style:normal;font-variant:normal;font-weight:normal;font-stretch:normal;font-size:40px;line-height:125%;font-family:CornFed;-inkscape-font-specification:'CornFed, Normal';text-align:start;letter-spacing:0px;word-spacing:0px;writing-mode:lr-tb;text-anchor:start;fill:#ffd54e;fill-opacity:1;stroke:#970001;stroke-width:0.5;stroke-linecap:butt;stroke-linejoin:miter;stroke-miterlimit:4;stroke-dasharray:none;stroke-opacity:1"
         id="path4157"
         inkscape:connector-curvature="0" />
      <path
         d="m 252.2591,302.58507 q 5.28,5.76 5.28,14.64 0,8.64 -5,14.36 -4.2,4.88 -9.88,4.88 -4.68,0 -8.52,-3.52 4.16,4.56 9.6,4.56 5.64,0 9.84,-4.84 5,-5.76 5,-14.36 0,-4.8 -1.72,-9 -1.68,-4.04 -4.6,-6.72 z m -13.56,7.24 q 2.32,-1.88 5.04,-1.88 2.84,0 5.24,2.08 -2.72,-3.12 -6.32,-3.12 -2.68,0 -5,1.88 -2.16,1.72 -3.4,4.6 -1.2,2.88 -1.2,6.24 0,3.28 1.16,6.12 1.2,2.8 3.2,4.52 -3.32,-3.8 -3.32,-9.6 0,-3.32 1.2,-6.2 1.24,-2.88 3.4,-4.64 z m 3.44,-12.32 q -4.48,0 -8.24,3.2 -3.08,2.68 -4.84,6.96 -1.76,4.24 -1.76,9.04 0,7.08 3.8,12.8 4.32,6.44 11.04,6.44 5.68,0 9.88,-4.88 5,-5.72 5,-14.36 0,-7.08 -3.8,-12.76 -4.32,-6.44 -11.08,-6.44 z m -9.6,21.6 q 0,-3.36 1.2,-6.24 1.24,-2.88 3.4,-4.64 2.32,-1.84 5,-1.84 4.44,0 7.2,4.28 2.44,3.8 2.44,8.44 0,5.56 -3.12,9.32 -2.76,3.4 -6.52,3.4 -4.4,0 -7.2,-4.32 -2.4,-3.76 -2.4,-8.4 z"
         style="font-style:normal;font-variant:normal;font-weight:normal;font-stretch:normal;font-size:40px;line-height:125%;font-family:CornFed;-inkscape-font-specification:'CornFed, Normal';text-align:start;letter-spacing:0px;word-spacing:0px;writing-mode:lr-tb;text-anchor:start;fill:#ffd54e;fill-opacity:1;stroke:#970001;stroke-width:0.5;stroke-linecap:butt;stroke-linejoin:miter;stroke-miterlimit:4;stroke-dasharray:none;stroke-opacity:1"
         id="path4159"
         inkscape:connector-curvature="0" />
      <path
         sodipodi:nodetypes="cccccccccccccccccccccccccccccccccccccccccccccccccccccccccccccccccccccccccc"
         d="m 260.7491,304.74507 -0.12,1.48 2.35326,-0.2 -0.08,-1.48 z m 8.44,16.04 0.76,10.69383 1.32,0.12 -0.68,-9.45383 6.9899,5.96934 -0.0411,0.24336 z m -6.84,15.28 -0.32,1.36 13.28,0.08 -0.2,-3.68 -1.32,-0.12 0.16,2.4 z m 5.76,-31.76 0.68,8.74541 1.2,-1.44 -0.52,-5.90541 4.48,-0.28 -0.84,-3.6 -1.04,0.04 0.52,2.16 z m 19.68,4.72 1.56,-3.4 -1.52,-1.08 -1.44,3.08 -3.24,-2.2 -11.87775,12.83888 1.49831,0.95887 11.77944,-12.39775 z m -9.16,23.84 -0.48,0.76 3.88,1.28 5.4,-8.48 -1.6,-1.04 -5.2,8.16 z m -0.12,-35.36 -2.44,2.84 2.2,1.52 -0.24,0.24 -9.96,11.84 -0.68,-10.32 4.48,-0.28 -0.84,-3.6 -12.24,0.8 -0.24,3.6 4.4,-0.28 1.32,28.24 -3.44,-0.24 -0.88,3.48 13.28,0.08 -0.2,-3.68 -3.76,-0.28 -0.76,-11.4 9.68112,8.21832 -0.08,0.12 -2.04112,3.14168 3.88,1.28 5.4,-8.48 -3.24,-2.12 -1.4,2.16 -10.4,-6.72 12.16,-12.92 3.24,2.2 1.56,-3.4 z"
         style="font-style:normal;font-variant:normal;font-weight:normal;font-stretch:normal;font-size:40px;line-height:125%;font-family:CornFed;-inkscape-font-specification:'CornFed, Normal';text-align:start;letter-spacing:0px;word-spacing:0px;writing-mode:lr-tb;text-anchor:start;fill:#ffd54e;fill-opacity:1;stroke:#970001;stroke-width:0.60000002;stroke-linecap:butt;stroke-linejoin:miter;stroke-miterlimit:4;stroke-dasharray:none;stroke-opacity:1"
         id="path4161"
         inkscape:connector-curvature="0" />
      <path
         sodipodi:nodetypes="ccccccccccccccccccccccccccccccccccccccccccccccccccccccccccccccccccccccccccc"
         d="m 302.49035,321.74507 0,0.8 2.32,0.32 0.36,-9.48 -0.96,0.04 -0.32,8.52 z m -11.64,9.64 -0.08,0.72 12.09495,2.57944 0.12,-0.72 z m 8.24,-12.96 -0.24,8.77607 0.96,0.12 0.24,-7.91551 0.95551,0.41944 0,-0.68 z m -6.6,-14.16 -0.2,0.8 1.97495,0.32 0.08,-0.8 z m 18.48,-5.24 -0.64,12.84 -4.12,-0.6 -0.12,0.8 5.16,0.76 0.72,-13.88 z m -6.68,37.12 -0.12,0.8 4.08,0.56 1.2,-10.16 -1.04,-0.04 -1.12,9.24 z m -4.84,-30.72 -0.24,8.03551 1,0.04 0.2,-7.15551 4.65495,0.83888 0.08,-0.76 z m 6.64,-7.56 -0.2,1.76 -14.04,-0.12 -1,4.12 3.56,0.48 -2.72,22.32 -1.8,0.04 -0.56,4.24 13.72,2.84 -0.32,1.96 4.08,0.56 1.24,-10.16 -4.28,-0.12 -0.2,1.96 -5.2,-0.56 0.24,-9.24 2.4,0.76 0.08,2.44 2.32,0.32 0.36,-9.48 -2.88,0.08 0,0.16 0.04,1.32 -2.2,-0.08 0.24,-8.52 6.24,1.12 -0.52,4.56 5.16,0.76 0.68,-13.88 z"
         style="font-style:normal;font-variant:normal;font-weight:normal;font-stretch:normal;font-size:40px;line-height:125%;font-family:CornFed;-inkscape-font-specification:'CornFed, Normal';text-align:start;letter-spacing:0px;word-spacing:0px;writing-mode:lr-tb;text-anchor:start;fill:#ffd54e;fill-opacity:1;stroke:#970001;stroke-width:0.5;stroke-linecap:butt;stroke-linejoin:miter;stroke-miterlimit:4;stroke-dasharray:none;stroke-opacity:1"
         id="path4163"
         inkscape:connector-curvature="0" />
      <path
         sodipodi:nodetypes="ccccccccccccccccccccsccsccccsccscccccccccccccccccccscscccccccscscccscscccccccsccsccc"
         d="m 327.2266,322.86507 -3,-0.8 c -1.17333,-0.32 -2.04,-0.57333 -2.6,-0.76 -0.93333,-0.29333 -1.73333,-0.62667 -2.4,-1 1.17333,0.96 3.30667,1.85333 6.4,2.68 l 3,0.8 c 1.25333,0.34667 1.64162,0.65333 2.25495,0.92 -0.58667,-0.61333 -1.44162,-1.22667 -3.65495,-1.84 z m 4.76,-8.84 1.2,1.12 10.4,-11.96 -4.68,-4.32 -0.16,0.2 3.48,3.2 z m 1.6,-13.04 c -0.26667,-0.16 -0.54667,-0.32 -0.84,-0.48 0.26667,0.21333 0.50667,0.41333 0.72,0.6 z m 1.68,18.32 c 1.57333,1.30667 2.36,3.13333 2.36,5.48 0,0.37333 -0.0133,0.77333 -0.04,1.2 -0.37333,3.62667 -2,6.21333 -4.88,7.76 -1.73333,0.93333 -3.69333,1.4 -5.88,1.4 -2.88,0 -5.25333,-0.57333 -7.12,-1.72 l -2.88,2.92 1.12,1.16 3.12,-3.16 c 1.86667,1.14667 4.25333,1.72 7.16,1.72 2.16,0 4.12,-0.46667 5.88,-1.4 2.88,-1.54667 4.49333,-4.13333 4.84,-7.76 0.0267,-0.42667 0.04,-0.82667 0.04,-1.2 0,-2.90667 -1.24,-5.04 -3.72,-6.4 z m -11.87888,10.43888 c 0.50667,0.24 1.51726,0.23165 2.18393,0.33831 l 1.69495,-1.93719 -3.68,-3.84 -0.24,0.28 2.52,2.64 z m 2.19888,-23.51888 c -1.46667,0 -2.69333,0.36 -3.68,1.08 -1.17333,0.85333 -1.72,2.10667 -1.64,3.76 0.10667,1.78667 0.90667,2.98667 2.4,3.6 -0.61333,-0.64 -0.94667,-1.53333 -1,-2.68 -0.08,-1.65333 0.46667,-2.90667 1.64,-3.76 0.96,-0.72 1.81724,-0.94152 3.74881,-1.18881 3.03265,-0.384 0.14984,-0.81072 -1.46881,-0.81122 z m 4.28,10.48 -7.22056,-1.97832 c -1.12,-0.32 -1.85944,-0.94168 -2.33944,-1.50168 -0.56,-0.61333 -0.86667,-1.48 -0.92,-2.6 -0.08,-1.68 0.46667,-2.94667 1.64,-3.8 0.96,-0.69333 2.17333,-1.04 3.64,-1.04 1.6,0 2.90667,0.32 3.92,0.96 l -2.36,2.72 4.68,4.28 0.16,-0.16 10.24,-11.8 -4.72,-4.28 -3.12,3.6 c -2.05333,-1.97333 -4.82667,-2.96 -8.32,-2.96 -4.37333,0 -7.56,1.34667 -9.56,4.04 -1.46667,2 -2.2,4.52 -2.2,7.56 0,4.90667 1.64,8.26667 4.92,10.08 1.01333,0.56 2.68,1.16 5,1.8 l 3,0.8 c 1.62667,0.42667 2.72,0.8 3.28,1.12 1.12,0.64 1.65333,1.54667 1.6,2.72 -0.13333,2.50667 -2.01333,3.76 -5.64,3.76 -1.25333,0 -2.32,-0.21333 -3.2,-0.64 l 2.6,-2.64 -3.64,-3.8 -9.32,9.36 3.68,3.84 0.24,-0.28 2.88,-2.88 c 1.86667,1.14667 4.24,1.72 7.12,1.72 2.18667,0 4.14667,-0.46667 5.88,-1.4 2.88,-1.54667 4.50667,-4.14667 4.88,-7.8 0.0267,-0.4 0.04,-0.78667 0.04,-1.16 0,-2.16 -0.64,-3.86667 -1.92,-5.12 -1.06667,-1.01333 -2.70667,-1.85333 -4.92,-2.52 z"
         style="font-style:normal;font-variant:normal;font-weight:normal;font-stretch:normal;font-size:40px;line-height:125%;font-family:CornFed;-inkscape-font-specification:'CornFed, Normal';text-align:start;letter-spacing:0px;word-spacing:0px;writing-mode:lr-tb;text-anchor:start;fill:#ffd54e;fill-opacity:1;stroke:#970001;stroke-width:0.5;stroke-linecap:butt;stroke-linejoin:miter;stroke-miterlimit:4;stroke-dasharray:none;stroke-opacity:1"
         id="path4165"
         inkscape:connector-curvature="0" />
    </g>
  </g>
</svg>
