<?xml version="1.0" encoding="UTF-8" standalone="no"?>
<!-- Created with Inkscape (http://www.inkscape.org/) -->

<svg
   xmlns:dc="http://purl.org/dc/elements/1.1/"
   xmlns:cc="http://creativecommons.org/ns#"
   xmlns:rdf="http://www.w3.org/1999/02/22-rdf-syntax-ns#"
   xmlns:svg="http://www.w3.org/2000/svg"
   xmlns="http://www.w3.org/2000/svg"
   xmlns:sodipodi="http://sodipodi.sourceforge.net/DTD/sodipodi-0.dtd"
   xmlns:inkscape="http://www.inkscape.org/namespaces/inkscape"
   width="191.72792mm"
   height="114.70587mm"
   viewBox="0 0 679.3509 406.43809"
   id="svg2"
   version="1.1"
   inkscape:version="0.91 r13725"
   sodipodi:docname="SW-jokes (icon).svg"
   inkscape:export-filename="/Volumes/SD Card/Desarrollos/SW-Jokes/extras/SW-jokes (icon).png"
   inkscape:export-xdpi="300"
   inkscape:export-ydpi="300">
  <defs
     id="defs4" />
  <sodipodi:namedview
     id="base"
     pagecolor="#ffffff"
     bordercolor="#666666"
     borderopacity="1.0"
     inkscape:pageopacity="0.0"
     inkscape:pageshadow="2"
     inkscape:zoom="0.95151204"
     inkscape:cx="337.81886"
     inkscape:cy="192.65693"
     inkscape:document-units="px"
     inkscape:current-layer="layer1"
     showgrid="false"
     inkscape:window-width="1440"
     inkscape:window-height="851"
     inkscape:window-x="0"
     inkscape:window-y="1"
     inkscape:window-maximized="1"
     fit-margin-top="10"
     fit-margin-left="10"
     fit-margin-right="10"
     fit-margin-bottom="10" />
  <metadata
     id="metadata7">
    <rdf:RDF>
      <cc:Work
         rdf:about="">
        <dc:format>image/svg+xml</dc:format>
        <dc:type
           rdf:resource="http://purl.org/dc/dcmitype/StillImage" />
        <dc:title></dc:title>
      </cc:Work>
    </rdf:RDF>
  </metadata>
  <g
     inkscape:label="Capa 1"
     inkscape:groupmode="layer"
     id="layer1"
     transform="translate(-24.596474,20.301171)">
    <g
       id="g4172"
       transform="matrix(6.7051966,0,0,6.7114992,-836.68134,-337.27973)">
      <path
         sodipodi:nodetypes="cccscccccssc"
         d="m 169.94466,62.157065 -8.86719,0 c -3.34635,-0.104167 -3.84115,0.820313 -1.48438,2.773438 4.21875,3.697917 6.28907,7.291667 6.21094,10.78125 -0.0781,3.489583 -2.14844,5.572917 -6.21094,6.25 l -24.60937,0 0,-8.398438 15.54687,0 c 3.6849,0.104167 4.15365,-0.924479 1.40625,-3.085937 -4.53125,-4.166667 -6.45833,-7.994792 -5.78125,-11.484375 0.67709,-3.489583 2.8125,-5.234375 6.40625,-5.234375 l 17.38282,0"
         style="font-style:normal;font-variant:normal;font-weight:normal;font-stretch:normal;font-size:40px;line-height:125%;font-family:'Star Jedi Logo MonoLine';-inkscape-font-specification:'Star Jedi Logo MonoLine, Normal';text-align:start;letter-spacing:7px;word-spacing:0px;writing-mode:lr-tb;text-anchor:start;fill:none;fill-opacity:1;stroke:#ffd54e;stroke-width:2.5;stroke-linecap:butt;stroke-linejoin:miter;stroke-miterlimit:4;stroke-dasharray:none;stroke-opacity:1"
         id="path4150"
         inkscape:connector-curvature="0" />
      <path
         sodipodi:nodetypes="ccccccccccccccc"
         d="m 169.944,53.758628 12.93018,0 3.86693,12.187647 3.35937,-12.1875 8.4375,0 3.92579,12.1875 2.61718,-12.1875 9.08203,0 -6.97265,28.203125 -9.17969,0 -3.57422,-11.953125 -2.96875,11.953125 -9.17969,0 -6.48437,-19.804272 -5.85961,0"
         style="font-style:normal;font-variant:normal;font-weight:normal;font-stretch:normal;font-size:40px;line-height:125%;font-family:'Star Jedi Logo MonoLine';-inkscape-font-specification:'Star Jedi Logo MonoLine, Normal';text-align:start;letter-spacing:7px;word-spacing:0px;writing-mode:lr-tb;text-anchor:start;fill:none;fill-opacity:1;stroke:#ffd54e;stroke-width:2.5;stroke-linecap:butt;stroke-linejoin:miter;stroke-miterlimit:4;stroke-dasharray:none;stroke-opacity:1"
         id="path4152"
         inkscape:connector-curvature="0" />
    </g>
    <path
       inkscape:connector-curvature="0"
       id="path4157"
       style="font-style:normal;font-variant:normal;font-weight:normal;font-stretch:normal;font-size:40px;line-height:125%;font-family:CornFed;-inkscape-font-specification:'CornFed, Normal';text-align:start;letter-spacing:0px;word-spacing:0px;writing-mode:lr-tb;text-anchor:start;fill:#ffd54e;fill-opacity:1;stroke:#970001;stroke-width:1.60463703;stroke-linecap:butt;stroke-linejoin:miter;stroke-miterlimit:4;stroke-dasharray:none;stroke-opacity:1"
       d="m 241.15717,309.62334 c 3.0126,5.94722 6.76853,8.3808 11.08964,9.75387 -1.87485,-1.81951 -3.69634,-3.06719 -5.28629,-6.19619 l 11.96451,-3.97536 -5.14472,-17.11046 -4.22557,1.60647 3.59859,12.07078 z m -23.80469,7.91905 1.3585,4.82242 5.94548,-2.04457 c -0.69172,-1.67915 -1.23799,-3.30699 -1.63883,-4.88354 z m 30.01181,-70.99172 1.42178,5.07135 8.61498,-3.25466 -1.17309,-5.1347 z m 27.21379,-3.88402 14.35652,-4.98224 -5.51776,-17.01544 -4.10122,1.5748 3.72293,12.0391 -14.26382,4.82611 10.78196,40.32413 c 3.89979,14.64456 5.27227,27.67996 4.11712,39.10631 -1.3572,12.71469 -5.78283,20.99836 -13.27693,24.85102 -1.86297,1.00465 -3.7478,1.74982 -5.65445,2.23549 -5.71997,1.45703 -10.96597,1.11842 -16.68271,-1.57785 7.40921,5.53407 14.57911,7.01712 22.45442,5.01106 1.98956,-0.50679 3.87438,-1.25196 5.65445,-2.23549 7.4941,-3.85266 11.91973,-12.13633 13.27692,-24.85102 1.17626,-11.34336 -0.18559,-24.33731 -4.08546,-38.98184 z m -8.73556,-5.19621 14.35653,-4.98224 -5.39342,-17.04711 -39.39575,15.33615 4.76498,15.6169 15.56836,-5.42346 9.72613,40.85814 c 2.02835,8.6717 2.38351,16.66525 1.06581,23.98056 -1.39762,8.04246 -4.55322,12.46861 -9.4668,13.27849 -8.02299,1.42522 -14.30415,-2.2758 -18.8434,-11.10306 l 11.96452,-3.97536 -5.02038,-17.14214 -39.67832,14.74551 4.48464,15.55578 12.49355,-3.97759 c 1.58225,6.2232 4.25122,11.86038 8.00694,16.91148 4.04809,5.50672 8.8265,9.54636 14.33525,12.11888 5.59163,2.55141 11.24745,3.09859 16.96742,1.64156 1.98956,-0.50679 3.88491,-1.21057 5.6861,-2.11103 7.473,-3.93561 11.88808,-12.26079 13.24528,-24.97548 1.17625,-11.34336 -0.18559,-24.33731 -4.08547,-38.98184 z"
       sodipodi:nodetypes="cccccccccccccccccccccccccccscscccccccccccccccccccccscccc" />
    <path
       inkscape:connector-curvature="0"
       id="path4159"
       style="font-style:normal;font-variant:normal;font-weight:normal;font-stretch:normal;font-size:40px;line-height:125%;font-family:CornFed;-inkscape-font-specification:'CornFed, Normal';text-align:start;letter-spacing:0px;word-spacing:0px;writing-mode:lr-tb;text-anchor:start;fill:#ffd54e;fill-opacity:1;stroke:#970001;stroke-width:1.60463703;stroke-linecap:butt;stroke-linejoin:miter;stroke-miterlimit:4;stroke-dasharray:none;stroke-opacity:1"
       d="m 362.48811,219.4272 q 20.9707,13.74178 27.99585,41.37281 6.83529,26.88424 -4.1829,48.64193 -9.19578,18.51046 -26.85309,23.00825 -14.54862,3.70593 -29.27071,-4.20615 16.53963,10.89475 33.45085,6.587 17.53296,-4.46612 26.76039,-22.85211 10.98655,-21.88215 4.1829,-48.64193 -3.79738,-14.93569 -12.46702,-26.64242 -8.41872,-11.24054 -19.61627,-17.26738 z m -36.42599,33.26569 q 5.72483,-7.68694 14.18044,-9.84082 8.82866,-2.24889 17.93502,2.32276 -10.92391,-7.55432 -22.11516,-4.70361 -8.33126,2.1222 -14.05609,9.80914 -5.35402,7.06238 -6.93036,17.00571 -1.45199,9.91165 1.20618,20.36664 2.59488,10.20605 8.44773,18.12444 5.94556,7.76225 13.52365,11.53048 -13.32708,-9.1951 -17.91558,-27.24239 -2.62653,-10.33052 -1.17454,-20.24218 1.57633,-9.94332 6.89871,-17.13017 z m 0.94725,-41.05896 q -13.92689,3.54755 -23.08394,16.48209 -7.45454,10.77804 -9.53981,25.48938 -2.11693,14.58688 1.68046,29.52257 5.60114,22.03015 21.93934,36.81943 18.52432,16.61786 39.41465,11.29653 17.65731,-4.4978 26.8531,-23.00825 11.01819,-21.75769 4.1829,-48.64194 -5.60114,-22.03014 -21.9077,-36.69496 -18.52432,-16.61786 -39.539,-11.26485 z m -12.75512,74.81252 q -2.65816,-10.45499 -1.20618,-20.36664 1.57634,-9.94333 6.89871,-17.13018 5.75648,-7.56247 14.08774,-9.68467 13.80255,-3.51588 25.76851,7.61623 10.59144,9.89194 14.26224,24.32977 4.39864,17.30051 -2.32583,31.47076 -5.89015,12.76499 -17.57879,15.7424 -13.67819,3.48421 -25.80014,-7.74069 -10.43545,-9.79915 -14.10626,-24.23698 z" />
    <path
       inkscape:connector-curvature="0"
       id="path4161"
       style="font-style:normal;font-variant:normal;font-weight:normal;font-stretch:normal;font-size:40px;line-height:125%;font-family:CornFed;-inkscape-font-specification:'CornFed, Normal';text-align:start;letter-spacing:0px;word-spacing:0px;writing-mode:lr-tb;text-anchor:start;fill:#ffd54e;fill-opacity:1;stroke:#970001;stroke-width:1.92556453;stroke-linecap:butt;stroke-linejoin:miter;stroke-miterlimit:4;stroke-dasharray:none;stroke-opacity:1"
       d="m 396.58963,227.42532 0.79782,4.7002 7.15731,-2.48579 -1.41955,-4.54182 z m 38.92686,43.22676 10.82271,32.67313 4.19839,-0.67187 -9.59303,-28.87809 26.45184,13.03916 0.0648,0.78978 z m -9.17504,52.96165 0.0811,4.48517 41.34657,-10.26704 -3.53306,-11.29232 -4.19839,0.67187 2.39608,7.34114 z m -7.22002,-103.38564 9.03258,26.67377 2.59121,-5.43094 -6.28841,-17.96352 13.70537,-4.41881 -5.45933,-10.5366 -3.20138,0.948 3.32534,6.3093 z m 64.91293,-0.89714 2.15973,-11.81476 -5.57961,-2.15689 -2.03984,10.72402 -11.8126,-4.27989 -26.76702,49.35507 5.41635,1.79716 26.8104,-47.90459 z m -9.61518,81.43408 -0.89092,2.74492 13.07432,0.91041 10.07817,-30.66246 -5.79666,-1.96908 -9.70959,29.50837 z m -28.3471,-109.93123 -5.33839,10.7691 8.0416,2.98753 -0.55621,0.93683 -21.59559,44.72835 -10.27827,-31.57327 13.70537,-4.4188 -5.45933,-10.5366 -37.41735,12.18171 2.10195,11.39181 13.45668,-4.35545 26.44473,86.82639 -10.88373,1.97723 0.0175,11.52522 41.34657,-10.26704 -3.53306,-11.29233 -11.91015,2.10617 -11.38138,-34.87045 36.5972,17.906 -0.15376,0.43674 -3.85974,11.39195 13.07431,0.91042 10.07817,-30.66246 -11.7493,-4.03096 -2.64333,7.82968 -37.64662,-12.67457 27.58027,-49.83099 11.81259,4.27989 2.15973,-11.81476 z"
       sodipodi:nodetypes="cccccccccccccccccccccccccccccccccccccccccccccccccccccccccccccccccccccccccc" />
    <path
       inkscape:connector-curvature="0"
       id="path4163"
       style="font-style:normal;font-variant:normal;font-weight:normal;font-stretch:normal;font-size:40px;line-height:125%;font-family:CornFed;-inkscape-font-specification:'CornFed, Normal';text-align:start;letter-spacing:0px;word-spacing:0px;writing-mode:lr-tb;text-anchor:start;fill:#ffd54e;fill-opacity:1;stroke:#970001;stroke-width:1.60463703;stroke-linecap:butt;stroke-linejoin:miter;stroke-miterlimit:4;stroke-dasharray:none;stroke-opacity:1"
       d="m 541.79892,237.26913 0.63289,2.48928 7.4653,-0.84142 -6.3807,-29.78306 -2.95269,0.88466 5.74557,26.76425 z m -28.55864,39.21315 0.32092,2.30371 39.63998,-1.55138 -0.19656,-2.33538 z m 15.3626,-46.85133 6.19685,27.49769 3.07927,-0.3868 -5.51605,-24.81997 3.30221,0.5485 -0.53797,-2.11589 z m -31.71957,-38.83398 0.0112,2.64765 6.39265,-0.56818 -0.38421,-2.55263 z m 53.30294,-30.93847 8.16844,40.45977 -13.28243,1.39552 0.25985,2.58431 16.64205,-1.72121 -8.74252,-43.75918 z m 8.60044,120.79234 0.25986,2.58431 13.12644,-1.48831 -4.30738,-32.56412 -3.26467,0.69907 3.82824,29.6381 z m -39.34927,-91.7558 5.61099,25.19336 3.14032,-0.6674 -5.03914,-22.42347 15.13441,-1.07583 -0.35256,-2.42817 z m 14.66077,-28.78169 0.77063,5.63479 -43.74081,10.74439 0.15074,13.61167 11.44664,-1.32547 9.20222,71.60484 -5.56398,1.54982 1.6135,13.63664 44.89788,-2.02744 0.55582,6.35214 13.12645,-1.48831 -4.18303,-32.5958 -13.40009,3.01579 0.92886,6.25712 -16.60817,2.3752 -6.56388,-28.94126 8.06209,0.46434 2.17903,7.52897 7.4653,-0.84142 -6.38071,-29.78306 -8.88971,2.5295 0.12658,0.49786 1.16863,4.07564 -6.90239,1.49317 -5.99427,-26.7009 20.28422,-1.45624 1.991,14.60067 16.64205,-1.7212 -8.86686,-43.72751 z"
       sodipodi:nodetypes="ccccccccccccccccccccccccccccccccccccccccccccccccccccccccccccccccccccccccccc" />
    <path
       inkscape:connector-curvature="0"
       id="path4165"
       style="font-style:normal;font-variant:normal;font-weight:normal;font-stretch:normal;font-size:40px;line-height:125%;font-family:CornFed;-inkscape-font-specification:'CornFed, Normal';text-align:start;letter-spacing:0px;word-spacing:0px;writing-mode:lr-tb;text-anchor:start;fill:#ffd54e;fill-opacity:1;stroke:#970001;stroke-width:1.60463703;stroke-linecap:butt;stroke-linejoin:miter;stroke-miterlimit:4;stroke-dasharray:none;stroke-opacity:1"
       d="m 627.58208,223.16635 -9.95894,-0.11369 c -3.90067,-0.0666 -6.79529,-0.16857 -8.68383,-0.30597 -3.13348,-0.17365 -5.88414,-0.57738 -8.25195,-1.21112 4.40698,2.05802 11.74559,3.14839 22.01576,3.27116 l 9.95894,0.11368 c 4.17046,0.0862 5.62014,0.73296 7.73775,1.07706 -2.30899,-1.44388 -5.45198,-2.67534 -12.81773,-2.83112 z m 7.8038,-31.27584 4.61647,2.53475 22.86847,-45.45016 -17.96627,-9.73619 -0.33916,0.74902 13.34979,7.20143 z m -5.34233,-41.84228 c -0.95557,-0.28669 -1.95258,-0.56283 -2.99103,-0.82841 0.99776,0.45264 1.90207,0.88491 2.71292,1.29682 z m 19.71593,55.67422 c 5.92471,2.81997 9.81533,7.88087 11.67183,15.18278 0.29535,1.16165 0.57045,2.41683 0.825,3.7656 1.70857,11.58038 -1.30187,20.91714 -9.03126,28.01033 -4.65,4.27672 -10.37382,7.28086 -17.17148,9.01241 -8.953,2.28057 -16.7845,2.37596 -23.49453,0.28613 l -6.64293,11.36645 4.39943,2.72257 7.19914,-12.30329 c 6.71003,2.08983 14.58297,1.9839 23.61888,-0.31779 6.71475,-1.71043 12.43857,-4.71458 17.17147,-9.01241 7.7294,-7.0932 10.69836,-16.4194 8.90691,-27.97867 -0.25454,-1.34877 -0.52965,-2.60394 -0.825,-3.76559 -2.29952,-9.0444 -7.84201,-14.70057 -16.62746,-16.96852 z m -28.66923,41.88811 c 1.76495,0.34557 4.89994,-0.48066 7.05679,-0.67669 l 3.7365,-7.36994 -14.47785,-9.03449 -0.52457,1.0613 9.92244,6.21913 z m -11.77067,-74.92262 c -4.55941,1.16141 -8.0879,3.25293 -10.58554,6.2746 -2.97242,3.58434 -3.68029,7.91712 -2.12362,12.99828 1.74508,5.47494 5.18137,8.57537 10.30888,9.30129 -2.41297,-1.50575 -4.15595,-4.02147 -5.22889,-7.54723 -1.55668,-5.08115 -0.8488,-9.41394 2.12362,-12.99828 2.41472,-3.00054 4.90436,-4.36864 10.71336,-6.66766 9.12375,-3.5963 -0.17557,-2.64129 -5.20784,-1.36109 z m 21.5961,29.22041 -24.0115,-0.43803 c -3.73488,-0.10883 -6.52539,-1.45771 -8.46059,-2.82011 -2.22608,-1.465 -3.86506,-3.91889 -4.9169,-7.36165 -1.57778,-5.16415 -0.88044,-9.53841 2.09198,-13.12275 2.43582,-2.91756 5.93342,-4.95705 10.49283,-6.11846 4.97389,-1.26698 9.28907,-1.30597 12.9455,-0.11697 l -5.18463,10.33236 17.93462,9.61173 0.37081,-0.62455 22.49766,-44.82561 -18.05897,-9.58006 -6.85105,13.67239 c -7.94429,-4.51426 -17.3463,-5.38827 -28.20594,-2.62202 -13.59529,3.46308 -22.43625,10.1768 -26.52286,20.1411 -2.97717,7.38461 -3.26323,15.80655 -0.85822,25.26582 3.88177,15.2676 11.63818,24.42393 23.26921,27.46897 3.59315,0.94008 9.24897,1.48726 16.96743,1.64156 l 9.95894,0.11369 c 5.39434,0.0395 9.0885,0.33541 11.08252,0.88768 3.98804,1.10453 6.36328,3.5034 7.12574,7.19657 1.5686,7.90534 -3.28418,13.29391 -14.55834,16.16575 -3.8962,0.99246 -7.38091,1.17332 -10.45409,0.54254 l 5.994,-10.27348 -14.32185,-8.9417 -21.56801,36.50478 14.47785,9.03449 0.52457,-1.0613 6.67457,-11.24198 c 6.71004,2.08983 14.54153,1.99444 23.49453,-0.28613 6.79766,-1.73154 12.52148,-4.73569 17.17148,-9.01241 7.72939,-7.09319 10.72928,-16.47146 8.99961,-28.1348 -0.23345,-1.26578 -0.498,-2.47948 -0.79335,-3.64113 -1.70882,-6.72106 -5.04856,-11.52475 -10.01921,-14.41102 -4.1176,-2.30843 -9.88038,-3.62351 -17.28834,-3.94527 z"
       sodipodi:nodetypes="ccccccccccccccccccccsccsccccsccscccccccccccccccccccscscccccccscscccscscccccccsccsccc" />
  </g>
</svg>
